<?xml version="1.0" encoding="iso-8859-1"?>
<!-- Generator: Adobe Illustrator 18.0.0, SVG Export Plug-In . SVG Version: 6.00 Build 0)  -->
<!DOCTYPE svg PUBLIC "-//W3C//DTD SVG 1.1//EN" "http://www.w3.org/Graphics/SVG/1.1/DTD/svg11.dtd">
<svg xmlns="http://www.w3.org/2000/svg" xmlns:xlink="http://www.w3.org/1999/xlink" version="1.1" id="Capa_1" x="0px" y="0px" viewBox="0 0 419.946 419.946" style="enable-background:new 0 0 419.946 419.946;" xml:space="preserve" width="512px" height="512px">
<path d="M419.908,79.432c-0.636-20.608-9.238-40.21-24.223-55.196C364.644-6.805,315.521-8.189,286.181,21.15  c-5.811,5.812-10.537,12.514-14.046,19.919c-3.716,7.829-5.999,16.226-6.802,24.99c-4.024-1.934-7.661-4.513-10.836-7.688  c-4.417-4.417-7.675-9.705-9.601-15.524c0.634-0.123,1.266-0.243,1.894-0.36c3.642-0.676,6.95-2.416,9.566-5.033  c4.07-4.069,5.945-9.674,5.144-15.379c-0.696-4.948-3.313-9.28-7.37-12.198c-4.019-2.891-9.123-4.03-14.001-3.123  c-27.094,5.032-53.313,13.896-77.927,26.347c-27.658,13.98-52.848,32.236-74.871,54.258c-22.018,22.017-40.27,47.205-54.25,74.861  c-12.451,24.615-21.315,50.833-26.346,77.918c-0.913,4.873,0.221,9.975,3.11,13.997c2.919,4.065,7.255,6.687,12.201,7.383  c9.668,1.375,18.641-5.088,20.419-14.702c0.119-0.639,0.239-1.267,0.358-1.885c10.358,3.47,19.018,11.179,23.577,21.191  c-9.051,0.853-15.868,2.147-20.277,3.849c-9.439,3.625-17.848,9.086-24.993,16.23c-29.339,29.339-27.955,78.462,3.086,109.503  c16.099,16.099,37.06,24.223,57.602,24.223c19.072,0,37.784-7.003,51.91-21.128c10.75-10.75,17.674-24.42,20.141-39.424  c13.729,10.38,30.376,15.996,47.888,15.996c0.002,0,0.006,0,0.009,0c21.267-0.002,41.26-8.286,56.299-23.324  c19.016-19.017,26.957-46.361,21.689-72.277c25.912,5.274,53.254-2.667,72.272-21.685c28.379-28.379,30.817-73.027,7.316-104.196  c15.005-2.461,28.68-9.385,39.436-20.141C413.045,119.482,420.549,100.192,419.908,79.432z M168.068,44.701  c13.978-7.071,28.501-12.92,43.415-17.52l-5.433,45.667c-1.509-0.222-3.027-0.407-4.564-0.518  c-16.812-1.213-33.32,2.765-47.736,11.504c-3.731,2.262-7.384,4.649-10.961,7.143l4.094-34.365  C153.761,52.345,160.822,48.364,168.068,44.701z M145.467,239.448c-0.564,0.564-1.118,1.134-1.662,1.711  c-1.9,2.014-4.376,3.229-6.972,3.421l-0.491,0.036c-12.714,0.942-25.028-3.128-34.675-11.461  c-9.648-8.333-15.467-19.925-16.385-32.64c-1.016-14.08,2.315-27.903,9.658-40.015c16.186-26.698,38.853-49.365,65.55-65.55  c10.677-6.473,22.721-9.833,35.103-9.833c1.647,0,3.301,0.06,4.958,0.179c12.711,0.917,24.296,6.736,32.622,16.384  c8.325,9.648,12.385,21.959,11.433,34.668l-0.039,0.522c-0.201,2.677-1.382,5.127-3.323,6.897c-0.678,0.617-1.308,1.211-1.813,1.718  c-14.893,14.891-23.167,34.693-23.3,55.757c-0.052,8.165-6.736,14.85-14.9,14.901C180.164,216.279,160.361,224.555,145.467,239.448z   M105.298,370.363c-13.661,13.662-37.278,12.276-52.645-3.091c-15.367-15.367-16.753-38.983-3.091-52.645  c13.661-13.662,37.279-12.275,52.645,3.092c7.516,7.516,11.933,17.206,12.437,27.286  C115.135,354.839,111.816,363.845,105.298,370.363z M104.498,302.656c-3.412-2.471-7.022-4.509-10.752-6.102l5.803-48.737  c3.425,2.256,7.045,4.133,10.806,5.636L104.498,302.656z M115.514,113.689l4.543-38.158c4.116-3.282,8.321-6.443,12.609-9.483  l-4.279,35.922C123.933,105.691,119.644,109.61,115.514,113.689z M30.323,295.393c5.849-5.848,12.733-10.319,20.472-13.291  c3.547-1.369,10.341-2.52,19.122-3.241c3.545-0.286,6.772-2.264,8.634-5.291c1.865-3.031,2.175-6.811,0.851-10.059l-0.316-0.795  c-6.862-16.862-22.269-29.169-40.207-32.118c-0.356-0.059-0.71-0.087-1.061-0.087c-2.997,0-5.672,2.079-6.34,5.096  c-0.62,2.803-1.206,5.689-1.792,8.832c-0.509,2.749-3.062,4.597-5.817,4.205c-1.405-0.198-2.634-0.942-3.463-2.096  c-0.84-1.17-1.157-2.598-0.889-4.029c4.807-25.879,13.274-50.923,25.168-74.436c13.357-26.426,30.799-50.494,51.84-71.535  c2.926-2.926,5.917-5.775,8.958-8.561l-5.033,42.275c-6.077,7.447-11.659,15.304-16.649,23.537  c-8.724,14.39-12.695,30.867-11.484,47.65c0.982,13.596,6.381,26.173,15.359,36.139l-6.585,55.307  c-14.802-2.348-29.937,1.754-40.72,12.537c-18.731,18.731-17.344,50.595,3.091,71.03c7.505,7.505,16.553,12.435,25.925,14.748  L67.7,405.395c-12.428-2.717-24.433-9.025-34.291-18.883C7.437,360.539,6.052,319.664,30.323,295.393z M80.611,406.912l1.685-14.177  c3.958-0.038,7.873-0.548,11.659-1.525l-1.773,14.878C88.376,406.716,84.502,406.984,80.611,406.912z M153.155,341.269  c-1.828-1.986-4.692-2.636-7.196-1.635c-2.505,1.001-4.132,3.447-4.087,6.144c0.28,16.803-5.877,32.368-17.336,43.828  c-5.527,5.527-11.921,9.708-18.798,12.587l2.043-17.141c2.375-1.587,4.626-3.413,6.709-5.496c9.149-9.149,13.814-21.65,13.137-35.2  c-0.547-10.937-4.544-21.477-11.39-30.327l6.792-57.068c3.184,0.514,6.421,0.79,9.694,0.79c1.52,0,3.047-0.056,4.578-0.17  l0.491-0.036c5.843-0.433,11.337-3.084,15.469-7.465c0.458-0.485,0.924-0.965,1.398-1.439c9.075-9.076,20.335-15.197,32.589-17.905  l-1.813,15.235c-7.583,2.474-14.714,6.704-20.73,12.72c-20.435,20.436-20.436,53.686,0,74.122c2.928,2.928,6.126,5.422,9.505,7.511  l-1.818,15.242c-6.483-3.19-12.473-7.446-17.732-12.705C154.138,342.34,153.647,341.804,153.155,341.269z M173.897,323.62  c-15.366-15.366-15.366-40.37,0-55.737c15.366-15.366,40.371-15.367,55.736,0C245,283.25,245,308.253,229.635,323.62  C214.267,338.986,189.265,338.987,173.897,323.62z M272.591,264.25c-2.38-0.879-5.055-0.295-6.851,1.499  c-1.794,1.794-2.381,4.469-1.502,6.849c8.993,24.35,2.962,51.927-15.366,70.255c-12.583,12.583-29.313,19.514-47.106,19.516  c-0.003,0-0.004,0-0.008,0c-5.758,0-11.401-0.737-16.831-2.145l1.707-14.306c4.927,1.477,10.028,2.22,15.131,2.22  c13.421,0,26.844-5.109,37.062-15.326c20.435-20.436,20.435-53.686-0.001-74.122c-10.964-10.964-25.616-16.037-39.999-15.236  l1.7-14.286c0.262-0.005,0.522-0.022,0.784-0.024c15.243-0.097,27.723-12.576,27.818-27.819  c0.111-17.623,7.033-34.189,19.494-46.649c0.384-0.385,0.861-0.831,1.375-1.299c4.407-4.017,7.081-9.535,7.53-15.536v0l0.039-0.521  c1.214-16.177-3.955-31.85-14.554-44.132c-6.67-7.729-14.985-13.524-24.264-17.052l6.276-52.757  c5.778-1.465,11.604-2.754,17.476-3.844c1.433-0.266,2.863,0.052,4.035,0.895c1.149,0.827,1.892,2.055,2.089,3.456  c0.228,1.624-0.305,3.219-1.463,4.376c-0.75,0.751-1.699,1.25-2.752,1.445c-2.903,0.542-5.866,1.143-8.809,1.788  c-3.375,0.74-5.582,3.991-5.022,7.401c1.789,10.912,6.881,20.825,14.724,28.668c4.993,4.994,10.846,8.877,17.408,11.547  c3.335,1.348,7.141,1.007,10.181-0.915c3.059-1.933,5.014-5.25,5.229-8.873c0.473-7.995,2.41-15.626,5.759-22.684  c2.871-6.058,6.737-11.541,11.493-16.297c8.168-8.169,18.222-13.419,28.952-15.816l-1.815,15.241  c-6.308,2.162-12.159,5.686-17.093,10.62c-18.731,18.73-17.345,50.594,3.091,71.03c1.245,1.246,2.538,2.412,3.863,3.516  l-4.271,35.925c-4.001-0.961-8.143-1.464-12.366-1.464c-14.013,0-27.176,5.445-37.061,15.329h-0.001  c-20.435,20.436-20.434,53.686,0.001,74.121c9.886,9.885,23.047,15.33,37.061,15.33c0.021,0,0.041-0.002,0.062-0.002l-1.688,14.172  C286.865,268.179,279.594,266.84,272.591,264.25z M317.7,102.225c-15.366-15.367-16.753-38.983-3.091-52.645  c6.306-6.306,14.729-9.405,23.485-9.405c10.216,0,20.886,4.222,29.159,12.496c15.366,15.367,16.753,38.983,3.091,52.645  C356.685,118.978,333.066,117.592,317.7,102.225z M295.733,241.174c-10.541,0-20.438-4.092-27.868-11.522  c-15.366-15.366-15.366-40.37,0-55.736h-0.001c7.431-7.43,17.328-11.522,27.869-11.522s20.438,4.092,27.868,11.522  c15.366,15.366,15.366,40.37,0.001,55.736C316.172,237.082,306.274,241.174,295.733,241.174z M345.77,141.884  c-2.645-0.057-5.115,1.56-6.13,4.043c-1.013,2.483-0.397,5.333,1.551,7.177l0.467,0.44c0.396,0.372,0.794,0.744,1.184,1.135  c25.973,25.972,25.969,68.236-0.008,94.213c-9.824,9.824-22.303,16.11-35.516,18.447l1.772-14.879  c8.893-2.322,17.044-6.956,23.704-13.615c20.435-20.436,20.434-53.686-0.001-74.121c-3.651-3.651-7.751-6.691-12.173-9.08  l3.921-32.973c7.163,3.338,14.808,5.028,22.322,5.028c12.095,0,23.844-4.359,32.674-13.189c18.731-18.73,17.345-50.594-3.091-71.03  c-11.383-11.384-26.314-16.848-40.545-16.225l1.696-14.237c17.363-0.134,35.201,6.717,48.896,20.412  c12.636,12.636,19.889,29.116,20.422,46.404c0.528,17.137-5.626,33.02-17.329,44.723  C378.125,136.017,362.532,142.164,345.77,141.884z" fill="#dedede"/>
<g>
</g>
<g>
</g>
<g>
</g>
<g>
</g>
<g>
</g>
<g>
</g>
<g>
</g>
<g>
</g>
<g>
</g>
<g>
</g>
<g>
</g>
<g>
</g>
<g>
</g>
<g>
</g>
<g>
</g>
</svg>
