<?xml version="1.0" encoding="iso-8859-1"?>
<!-- Generator: Adobe Illustrator 19.0.0, SVG Export Plug-In . SVG Version: 6.00 Build 0)  -->
<svg xmlns="http://www.w3.org/2000/svg" xmlns:xlink="http://www.w3.org/1999/xlink" version="1.1" id="Layer_1" x="0px" y="0px" viewBox="0 0 511.978 511.978" style="enable-background:new 0 0 511.978 511.978;" xml:space="preserve" width="512px" height="512px">
<g>
	<g>
		<path d="M501.323,90.661H479.98c0-5.891-4.781-10.664-10.656-10.664c-5.906,0-10.688,4.773-10.688,10.664H74.669    c-4.593,0-8.671,2.938-10.109,7.296l-6.984,20.929c-13.796-7.82-14.875-17.718-14.921-18.218c0.016,0.172,0.016,0.258,0.016,0.258    l-21.328,0.805c0.062,1.359,0.578,8.594,5.875,17.218c3.781,6.164,10.796,14.18,23.531,20.437l-7.453,22.343    c0,0.008,0,0.016-0.016,0.023l-0.062,0.195c-0.062,0.211-0.125,0.422-0.188,0.633c-0.016,0.078-0.031,0.156-0.047,0.234    c-0.062,0.203-0.094,0.406-0.141,0.609c0,0.055-0.016,0.102-0.031,0.148c-1.094,1.062-5.188,4.25-17.421,8.188    c-8.688,2.805-16.718,4.422-16.796,4.438c-5,0.992-8.625,5.39-8.594,10.484c0,5.102,3.609,9.477,8.625,10.438    c0.094,0.023,8.906,1.82,17.625,7c10.234,6.078,15.765,14.062,16.453,23.726c0.781,11.109-5.984,31.304-13.812,54.687    C16.03,320.954,0.014,368.796,0.014,421.309c0,5.891,4.766,10.672,10.656,10.672h127.997c5.234,0,9.688-3.812,10.531-8.969    c0.078-0.531,8.718-53.592,22.093-105.84c3.234-12.609,6.453-24.125,9.687-34.531h64.342c17.655,0,32.007-14.344,32.007-31.992    v-21.328c0-3.742-0.656-7.328-1.844-10.671h225.839c5.875,0,10.656-4.773,10.656-10.664v-42.663v-63.999    C511.979,95.434,507.198,90.661,501.323,90.661z M172.292,111.997l7.109,42.663h-10.359l-7.125-42.663H172.292z M140.292,111.997    l7.109,42.663h-10.359l-7.109-42.663H140.292z M82.356,111.997h25.937l7.109,42.663H68.138L82.356,111.997z M188.15,261.321    c2.125-5.757,4.234-11,6.328-15.718c1.438-3.227,2.798-6.062,4.094-8.57c0.484,7.585,2.172,15.898,5.953,24.288H188.15z     M255.993,250.65c0,5.883-4.781,10.671-10.672,10.671h-16.218c-11.625-15.945-10-33.405-7.875-42.67h24.093    c5.891,0,10.672,4.788,10.672,10.671V250.65z M213.338,197.323c-0.109,0-0.203,0.008-0.312,0.008    c-18.421,0.25-30.546,22.726-38.062,39.663c-8.109,18.234-16.297,43.476-24.375,75.022c-2.156,8.422-4.188,16.873-6.078,25.123    c-3.469,1.766-5.844,5.359-5.844,9.5c0,2.469,0.844,4.75,2.25,6.547c-2.188,10.109-4.125,19.641-5.812,28.188    c-1.891-1.688-4.375-2.734-7.109-2.734c-5.891,0-10.656,4.781-10.656,10.672s4.766,10.672,10.656,10.672    c1.312,0,2.547-0.25,3.703-0.688c-0.812,4.422-1.484,8.248-2.031,11.342H21.576c0.891-20.061,4.172-39.514,8.562-57.967    c1.172-1.719,1.875-3.781,1.875-6.031c0-0.406-0.031-0.828-0.078-1.234c2.734-10.703,5.797-21.047,8.922-30.92    c0.594,0.094,1.188,0.156,1.812,0.156c5.891,0,10.671-4.766,10.671-10.656c0-4.188-2.421-7.812-5.937-9.562    c0.578-1.719,1.141-3.438,1.719-5.125c2.484-7.406,4.812-14.406,6.875-20.945c1.953,2.219,4.812,3.633,8,3.633    c5.891,0,10.671-4.773,10.671-10.664c0-5.89-4.781-10.671-10.671-10.671c-1.062,0-2.094,0.164-3.078,0.461    c2.328-9.445,3.547-17.703,3.062-24.757c-1.078-15.265-8.812-28.218-22.468-37.757c7.109-2.922,14.453-6.922,18.75-12.609h67.686    c0.016,0,0.031,0.008,0.047,0.008c0,0,0.016-0.008,0.031-0.008h31.921c0.016,0,0.031,0.008,0.031,0.008    c0.016,0,0.031-0.008,0.047-0.008h31.921c0.016,0,0.031,0.008,0.031,0.008c0.016,0,0.031-0.008,0.047-0.008h181.3c0,0,0,0,0.031,0    h117.279v21.333H213.338z M490.636,154.66h-85.311l14.218-10.664h71.093V154.66z M490.636,122.66h-74.655    c-2.312,0-4.562,0.75-6.406,2.133l-39.812,29.867H201.025l-7.109-42.663h19.406c0,5.89,4.781,10.663,10.671,10.663h42.67    c5.883,0,10.664-4.773,10.664-10.664h213.309V122.66z" fill="#dedede"/>
	</g>
</g>
<g>
	<g>
		<path d="M106.668,250.65c-5.89,0-10.672,4.781-10.672,10.671c0,5.891,4.782,10.664,10.672,10.664    c5.891,0,10.671-4.773,10.671-10.664C117.339,255.431,112.558,250.65,106.668,250.65z" fill="#dedede"/>
	</g>
</g>
<g>
	<g>
		<path d="M149.339,250.65c-5.891,0-10.672,4.781-10.672,10.671c0,5.891,4.781,10.664,10.672,10.664s10.656-4.773,10.656-10.664    C159.995,255.431,155.23,250.65,149.339,250.65z" fill="#dedede"/>
	</g>
</g>
<g>
	<g>
		<path d="M85.341,293.329c-5.891,0-10.672,4.766-10.672,10.656s4.781,10.656,10.672,10.656s10.656-4.766,10.656-10.656    S91.232,293.329,85.341,293.329z" fill="#dedede"/>
	</g>
</g>
<g>
	<g>
		<path d="M127.996,293.329c-5.891,0-10.656,4.766-10.656,10.656s4.766,10.656,10.656,10.656c5.89,0,10.671-4.766,10.671-10.656    S133.886,293.329,127.996,293.329z" fill="#dedede"/>
	</g>
</g>
<g>
	<g>
		<path d="M63.997,335.983c-5.891,0-10.656,4.781-10.656,10.656c0,5.906,4.766,10.672,10.656,10.672s10.671-4.766,10.671-10.672    C74.669,340.764,69.888,335.983,63.997,335.983z" fill="#dedede"/>
	</g>
</g>
<g>
	<g>
		<path d="M106.668,335.983c-5.891,0-10.672,4.781-10.672,10.656c0,5.906,4.781,10.672,10.672,10.672s10.671-4.766,10.671-10.672    C117.34,340.764,112.559,335.983,106.668,335.983z" fill="#dedede"/>
	</g>
</g>
<g>
	<g>
		<path d="M42.67,378.639c-5.891,0-10.656,4.781-10.656,10.672s4.766,10.672,10.656,10.672c5.89,0,10.671-4.781,10.671-10.672    S48.56,378.639,42.67,378.639z" fill="#dedede"/>
	</g>
</g>
<g>
	<g>
		<path d="M85.341,378.639c-5.891,0-10.672,4.781-10.672,10.672s4.781,10.672,10.672,10.672s10.656-4.781,10.656-10.672    S91.231,378.639,85.341,378.639z" fill="#dedede"/>
	</g>
</g>
<g>
</g>
<g>
</g>
<g>
</g>
<g>
</g>
<g>
</g>
<g>
</g>
<g>
</g>
<g>
</g>
<g>
</g>
<g>
</g>
<g>
</g>
<g>
</g>
<g>
</g>
<g>
</g>
<g>
</g>
</svg>
