<?xml version="1.0" encoding="iso-8859-1"?>
<!-- Generator: Adobe Illustrator 18.1.1, SVG Export Plug-In . SVG Version: 6.00 Build 0)  -->
<svg xmlns="http://www.w3.org/2000/svg" xmlns:xlink="http://www.w3.org/1999/xlink" version="1.1" id="Capa_1" x="0px" y="0px" viewBox="0 0 70.062 70.062" style="enable-background:new 0 0 70.062 70.062;" xml:space="preserve" width="512px" height="512px">
<g id="_x37_7_Essential_Icons_42_">
	<path id="Notification" d="M54.808,5.525l1-2.9c0.4-1-0.1-2.2-1.2-2.5c-1-0.4-2.2,0.2-2.5,1.2l-1.1,2.8   c-12.9-3.5-26.6,3.3-31.3,15.9l-6.5,17.8l-12,5.5c-1.6,0.7-1.5,3,0.2,3.6l21.6,7.9c-0.9,5.1,2,10.2,7,12s10.6-0.3,13.2-4.7   l21.8,7.8l0,0c1,0.4,2.2-0.1,2.6-1.2c0.2-0.6,0.1-1.2-0.2-1.7l-5.5-11.7l6.5-17.8C73.108,24.925,67.008,11.025,54.808,5.525z    M31.508,63.125c-3-1.1-4.8-3.9-4.6-6.9l12.6,4.5C37.708,63.125,34.408,64.125,31.508,63.125z M64.708,36.225l-6.8,18.5   c-0.2,0.5-0.2,1,0.1,1.5l3.9,8.3l-18.9-6.7l-16.9-6.1l-18.9-6.8l8.4-3.9c0.5-0.2,0.8-0.6,1-1.1l6.8-18.5c4.1-11.2,16.7-17,28.1-13   C62.908,12.525,68.808,25.025,64.708,36.225z" fill="#d3d3d3"/>
</g>
<g>
</g>
<g>
</g>
<g>
</g>
<g>
</g>
<g>
</g>
<g>
</g>
<g>
</g>
<g>
</g>
<g>
</g>
<g>
</g>
<g>
</g>
<g>
</g>
<g>
</g>
<g>
</g>
<g>
</g>
</svg>
