<?xml version="1.0" encoding="iso-8859-1"?>
<!-- Generator: Adobe Illustrator 18.0.0, SVG Export Plug-In . SVG Version: 6.00 Build 0)  -->
<!DOCTYPE svg PUBLIC "-//W3C//DTD SVG 1.1//EN" "http://www.w3.org/Graphics/SVG/1.1/DTD/svg11.dtd">
<svg xmlns="http://www.w3.org/2000/svg" xmlns:xlink="http://www.w3.org/1999/xlink" version="1.1" id="Capa_1" x="0px" y="0px" viewBox="0 0 485.721 485.721" style="enable-background:new 0 0 485.721 485.721;" xml:space="preserve" width="512px" height="512px">
<path d="M424.288,259.224c22.548,0,40.893-18.344,40.893-40.892v-30.11c0-22.548-18.345-40.892-40.893-40.892h-18.347  c-2.692-7.291-7.41-13.604-13.462-18.268c35.541-0.049,64.441-28.978,64.441-64.53C456.921,28.948,427.973,0,392.39,0h-34.346  h-37.822H166.563H128.74H94.528C58.945,0,29.995,28.948,29.995,64.531c0,35.553,28.9,64.48,64.441,64.53  c-6.052,4.665-10.77,10.977-13.462,18.268H61.431c-22.548,0-40.892,18.344-40.892,40.892v30.11  c0,22.548,18.344,40.892,40.892,40.892h17.026v53.413H61.431c-22.548,0-40.892,18.344-40.892,40.892v6.487v54.187  c0,22.548,18.344,40.892,40.892,40.892h18.333c4.566,17.596,20.582,30.627,39.586,30.627h248.218  c19.003,0,35.019-13.031,39.584-30.627h17.139c22.547,0,40.891-18.344,40.891-40.892v-54.187v-6.487  c0-22.548-18.344-40.892-40.891-40.892h-15.832v-53.413H424.288z M424.288,155.83c17.861,0,32.393,14.531,32.393,32.392v30.11  c0,17.86-14.531,32.392-32.393,32.392h-15.83v-28.595v-15.292v-45.382c0-1.909-0.142-3.785-0.397-5.625H424.288z M261.22,369.806  v66.698h-29.324v-66.698H261.22z M101.841,358.919v-99.828c2.129,1.007,4.366,1.838,6.692,2.472v47.051  c0,2.348,1.903,4.25,4.25,4.25h37.823c2.347,0,4.25-1.902,4.25-4.25v-45.592h175.889v45.592c0,2.348,1.902,4.25,4.25,4.25h37.824  c2.348,0,4.25-1.902,4.25-4.25V261.9c3.093-0.739,6.042-1.834,8.81-3.232c-0.001,0.035-0.011,0.068-0.011,0.104v100.147H101.841z   M86.958,247.103c2.37,3.074,5.176,5.805,8.335,8.102c-1.172,0.757-1.952,2.067-1.952,3.566v100.147h-6.383V247.103z   M315.972,24.149H198.583c-2.347,0-4.25,1.902-4.25,4.25c0,2.348,1.903,4.25,4.25,4.25h117.389v87.914H170.813V8.5h145.159V24.149z   M320.222,129.064h10.523v125.458H154.856v-95.987h91.702c2.348,0,4.25-1.902,4.25-4.25c0-2.348-1.902-4.25-4.25-4.25h-91.702  v-20.971h11.707H320.222z M339.245,258.772V130.246h29.324V258.39v45.974h-29.324V258.772z M117.033,258.173V130.246h29.323v128.525  v45.592h-29.323V258.173z M391.912,254.931c3.038-2.27,5.742-4.954,8.046-7.952v7.976c0,0.007-0.002,0.013-0.002,0.02  c0,0.007,0.002,0.013,0.002,0.02v61.874c0,0.007-0.002,0.013-0.002,0.02c0,0.007,0.002,0.013,0.002,0.02v42.013h-5.59V258.772  C394.368,257.067,393.36,255.608,391.912,254.931z M399.958,161.455v45.382v15.292c0,14.32-9.549,26.859-22.889,30.966V130.485  C390.308,134.556,399.958,146.9,399.958,161.455z M448.421,64.531c0,30.896-25.136,56.032-56.031,56.032h-24.822h-5.273V8.5h30.096  C423.285,8.5,448.421,33.636,448.421,64.531z M353.794,8.5v112.063h-29.322V8.5H353.794z M162.313,8.5v112.063H132.99V8.5H162.313z   M94.528,120.563c-30.897,0-56.032-25.136-56.032-56.032C38.495,33.636,63.631,8.5,94.528,8.5h29.962v112.063h-5.14H94.528z   M86.958,161.455c0-14.069,9.017-26.072,21.575-30.534v121.745c-12.76-4.494-21.575-16.619-21.575-30.537v-15.292V161.455z   M61.431,250.724c-17.861,0-32.392-14.531-32.392-32.392v-30.11c0-17.86,14.531-32.392,32.392-32.392h17.423  c-0.254,1.84-0.396,3.716-0.396,5.625v45.382v15.292v28.595H61.431z M61.431,321.137h17.026v71.271H61.431  c-17.861,0-32.392-14.531-32.392-32.393v-6.487C29.04,335.668,43.571,321.137,61.431,321.137z M61.431,446.594  c-17.861,0-32.392-14.531-32.392-32.392v-29.271c7.483,9.706,19.216,15.977,32.392,15.977h17.026v43.92  c0,0.592,0.02,1.18,0.045,1.766H61.431z M367.568,477.221H119.349c-17.861,0-32.392-14.531-32.392-32.393v-77.409h6.383v47.635  c0,2.348,1.903,4.25,4.25,4.25c2.347,0,4.25-1.902,4.25-4.25v-47.635h121.556v73.335c0,2.348,1.903,4.25,4.25,4.25h37.824  c2.348,0,4.25-1.902,4.25-4.25v-73.335h116.148v47.635c0,2.348,1.902,4.25,4.25,4.25c2.348,0,4.25-1.902,4.25-4.25v-47.635h5.59  v29.22c0,0.007-0.002,0.013-0.002,0.02c0,0.007,0.002,0.013,0.002,0.02v48.15C399.958,462.69,385.428,477.221,367.568,477.221z   M456.681,414.202c0,17.86-14.53,32.392-32.391,32.392h-15.877c0.025-0.586,0.045-1.174,0.045-1.766v-43.92h15.832  c13.175,0,24.907-6.271,32.391-15.977V414.202z M424.29,321.137c17.86,0,32.391,14.531,32.391,32.392v6.487  c0,17.861-14.53,32.393-32.391,32.393h-15.832v-71.271H424.29z" fill="#FFFFFF"/>
<g>
</g>
<g>
</g>
<g>
</g>
<g>
</g>
<g>
</g>
<g>
</g>
<g>
</g>
<g>
</g>
<g>
</g>
<g>
</g>
<g>
</g>
<g>
</g>
<g>
</g>
<g>
</g>
<g>
</g>
</svg>
