<?xml version="1.0" encoding="iso-8859-1"?>
<!-- Generator: Adobe Illustrator 16.0.0, SVG Export Plug-In . SVG Version: 6.00 Build 0)  -->
<!DOCTYPE svg PUBLIC "-//W3C//DTD SVG 1.1//EN" "http://www.w3.org/Graphics/SVG/1.1/DTD/svg11.dtd">
<svg xmlns="http://www.w3.org/2000/svg" xmlns:xlink="http://www.w3.org/1999/xlink" version="1.1" id="Capa_1" x="0px" y="0px" width="512px" height="512px" viewBox="0 0 71.05 71.05" style="enable-background:new 0 0 71.05 71.05;" xml:space="preserve">
<g>
	<g>
		<g>
			<path d="M10.727,46.251C4.812,46.251,0,41.439,0,35.525c0-5.915,4.812-10.726,10.727-10.726c5.914,0,10.727,4.812,10.727,10.726     C21.454,41.439,16.641,46.251,10.727,46.251z M10.727,29.288c-3.439,0-6.238,2.798-6.238,6.237s2.799,6.237,6.238,6.237     s6.238-2.798,6.238-6.237S14.166,29.288,10.727,29.288z" fill="#FFFFFF"/>
		</g>
		<g>
			<path d="M34.876,46.251c-5.915,0-10.726-4.812-10.726-10.726c0-5.915,4.811-10.726,10.726-10.726s10.726,4.812,10.726,10.726     C45.602,41.439,40.791,46.251,34.876,46.251z M34.876,29.288c-3.439,0-6.237,2.798-6.237,6.237s2.798,6.237,6.237,6.237     c3.438,0,6.237-2.798,6.237-6.237C41.114,32.086,38.316,29.288,34.876,29.288z" fill="#FFFFFF"/>
		</g>
		<g>
			<path d="M60.324,46.251c-5.914,0-10.729-4.812-10.729-10.726c0-5.915,4.813-10.726,10.729-10.726S71.05,29.611,71.05,35.525     C71.049,41.439,66.239,46.251,60.324,46.251z M60.324,29.288c-3.438,0-6.239,2.798-6.239,6.237s2.802,6.237,6.239,6.237     c3.439,0,6.236-2.798,6.236-6.237S63.764,29.288,60.324,29.288z" fill="#FFFFFF"/>
		</g>
	</g>
</g>
<g>
</g>
<g>
</g>
<g>
</g>
<g>
</g>
<g>
</g>
<g>
</g>
<g>
</g>
<g>
</g>
<g>
</g>
<g>
</g>
<g>
</g>
<g>
</g>
<g>
</g>
<g>
</g>
<g>
</g>
</svg>
