<?xml version="1.0" encoding="iso-8859-1"?>
<!-- Generator: Adobe Illustrator 19.0.0, SVG Export Plug-In . SVG Version: 6.00 Build 0)  -->
<svg xmlns="http://www.w3.org/2000/svg" xmlns:xlink="http://www.w3.org/1999/xlink" version="1.1" id="Layer_1" x="0px" y="0px" viewBox="0 0 490 490" style="enable-background:new 0 0 490 490;" xml:space="preserve" width="512px" height="512px">
<g>
	<g>
		<path d="M255,0c-83.794,0-152.261,66.838-154.911,150H80v190h20.089c2.65,83.162,71.117,150,154.911,150    c85.468,0,155-69.532,155-155V155C410,69.532,340.468,0,255,0z M130,310h-20V180h20V310z M380,335c0,68.925-56.075,125-125,125    c-67.25,0-122.257-53.385-124.891-120h30.023c2.609,50.068,44.163,90,94.869,90c52.383,0,95-42.617,95-95V155    c0-52.383-42.617-95-95-95c-50.706,0-92.26,39.932-94.869,90h-30.023C132.743,83.385,187.75,30,255,30    c68.925,0,125,56.075,125,125V335z M160,310V180h20v130H160z M190.211,150c2.564-33.511,30.632-60,64.789-60    c35.841,0,65,29.159,65,65v180c0,35.841-29.159,65-65,65c-34.157,0-62.224-26.489-64.789-60H210V150H190.211z" fill="#FFFFFF"/>
	</g>
</g>
<g>
</g>
<g>
</g>
<g>
</g>
<g>
</g>
<g>
</g>
<g>
</g>
<g>
</g>
<g>
</g>
<g>
</g>
<g>
</g>
<g>
</g>
<g>
</g>
<g>
</g>
<g>
</g>
<g>
</g>
</svg>
